HIERARCHY
ROOT joint_Root
{
	OFFSET 0.0 0.0 0.0
	CHANNELS 6 Xposition Yposition Zposition Zrotation Xrotation Yrotation 
	JOINT Hips
	{
		OFFSET -0.726466 93.3139 -2.00062
		CHANNELS 6 Xposition Yposition Zposition Zrotation Xrotation Yrotation 
		JOINT Spine
		{
			OFFSET 15.7357 0.0 0.0
			CHANNELS 6 Xposition Yposition Zposition Zrotation Xrotation Yrotation 
			JOINT Chest
			{
				OFFSET 8.98455 -0.406207 0.0
				CHANNELS 6 Xposition Yposition Zposition Zrotation Xrotation Yrotation 
				JOINT Neck
				{
					OFFSET 16.3773 0.0 0.0
					CHANNELS 6 Xposition Yposition Zposition Zrotation Xrotation Yrotation 
					JOINT Head
					{
						OFFSET 6.45672 0.0 0.0
						CHANNELS 6 Xposition Yposition Zposition Zrotation Xrotation Yrotation 
						End Site
						{
							OFFSET 0.0 0.0 0.0
						}
					}
				}
				JOINT Shoulder_L
				{
					OFFSET 12.9942 -0.242716 4.98039
					CHANNELS 6 Xposition Yposition Zposition Zrotation Xrotation Yrotation 
					JOINT UpperArm_L
					{
						OFFSET 5.34809 0.0 0.0
						CHANNELS 6 Xposition Yposition Zposition Zrotation Xrotation Yrotation 
						JOINT LowerArm_L
						{
							OFFSET 24.3286 1.87007e-05 0.0
							CHANNELS 6 Xposition Yposition Zposition Zrotation Xrotation Yrotation 
							JOINT Hand_L
							{
								OFFSET 22.2916 0.0 0.0
								CHANNELS 6 Xposition Yposition Zposition Zrotation Xrotation Yrotation 
								End Site
								{
									OFFSET 0.0 0.0 0.0
								}
							}
						}
					}
				}
				JOINT Shoulder_R
				{
					OFFSET 12.9945 -0.242716 -4.98039
					CHANNELS 6 Xposition Yposition Zposition Zrotation Xrotation Yrotation 
					JOINT UpperArm_R
					{
						OFFSET -5.34813 0.0 0.0
						CHANNELS 6 Xposition Yposition Zposition Zrotation Xrotation Yrotation 
						JOINT LowerArm_R
						{
							OFFSET -24.3289 0.000322201 0.0
							CHANNELS 6 Xposition Yposition Zposition Zrotation Xrotation Yrotation 
							JOINT Hand_R
							{
								OFFSET -22.2915 -0.000108084 0.0
								CHANNELS 6 Xposition Yposition Zposition Zrotation Xrotation Yrotation 
								End Site
								{
									OFFSET 0.0 0.0 0.0
								}
							}
						}
					}
				}
			}
		}
		JOINT UpperLeg_L
		{
			OFFSET -2.19248 -6.46944 0.0
			CHANNELS 6 Xposition Yposition Zposition Zrotation Xrotation Yrotation 
			JOINT LowerLeg_L
			{
				OFFSET 39.0811 0.0 -1.23785e-05
				CHANNELS 6 Xposition Yposition Zposition Zrotation Xrotation Yrotation 
				JOINT Foot_L
				{
					OFFSET 40.9854 0.0 -1.26872e-05
					CHANNELS 6 Xposition Yposition Zposition Zrotation Xrotation Yrotation 
					JOINT Toes_L
					{
						OFFSET 11.7543 0.0 0.0
						CHANNELS 6 Xposition Yposition Zposition Zrotation Xrotation Yrotation 
						End Site
						{
							OFFSET 0.0 0.0 0.0
						}
					}
				}
			}
		}
		JOINT UpperLeg_R
		{
			OFFSET -2.19251 6.46944 0.0
			CHANNELS 6 Xposition Yposition Zposition Zrotation Xrotation Yrotation 
			JOINT LowerLeg_R
			{
				OFFSET -39.0811 -0.00228153 -0.0401928
				CHANNELS 6 Xposition Yposition Zposition Zrotation Xrotation Yrotation 
				JOINT Foot_R
				{
					OFFSET -40.9854 0.0 0.0
					CHANNELS 6 Xposition Yposition Zposition Zrotation Xrotation Yrotation 
					JOINT Toes_R
					{
						OFFSET -11.7543 0.0 0.0
						CHANNELS 6 Xposition Yposition Zposition Zrotation Xrotation Yrotation 
						End Site
						{
							OFFSET 0.0 0.0 0.0
						}
					}
				}
			}
		}
	}
}
MOTION
Frames:	4
Frame Time:	0.0333333
0.000000 0.000000 0.000000 0.000000 0.000000 -0.000000 -1.511690 92.333800 -1.460680 88.048800 -0.239400 4.107700 15.735700 0.000005 -0.000001 90.432100 84.809200 -90.139200 8.984550 -0.406207 -0.000000 2.615100 0.065067 0.583846 16.377300 -0.000001 -0.000001 2.838720 -3.209790 1.266250 6.456720 -0.000001 -0.000000 0.442497 -2.899020 0.366278 12.994200 -0.242716 4.980390 -89.919100 -0.266791 -73.120900 5.348090 -0.000007 -0.000001 -67.014900 41.169400 -14.972200 24.328600 0.000019 0.000005 0.687782 1.654380 -22.576700 22.291600 -0.000001 0.000005 3.290820 5.457950 -4.926110 12.994500 -0.242716 -4.980390 87.524100 7.680380 -72.072000 -5.348130 -0.000001 -0.000004 -64.653700 37.993000 -15.564700 -24.328900 0.000322 -0.000009 3.126940 8.580030 -20.118000 -22.291500 -0.000108 -0.000004 9.446590 5.351520 -1.421460 -2.192480 -6.469440 -0.000000 -175.029000 -5.660090 -3.286520 39.081100 -0.000007 -0.000012 -0.115692 0.273161 22.954200 40.985400 -0.000006 -0.000013 -0.815812 3.358680 -65.754500 11.754300 -0.000000 0.000003 -0.000039 -0.000459 -16.595400 -2.192510 6.469440 -0.000001 -179.853000 13.932400 179.114000 -39.081100 -0.002282 -0.040193 -0.058859 0.173596 19.707300 -40.985400 0.000008 0.000006 2.909380 7.646690 -65.175200 -11.754300 -0.000006 -0.000006 -0.007276 -0.082013 -19.912100
0.000000 0.000000 0.000000 0.000000 0.000000 -0.000000 -1.528930 92.335000 -1.457770 88.066100 -0.267056 4.083060 15.735700 0.000005 -0.000001 90.626900 84.812200 -90.370900 8.984550 -0.406207 -0.000000 2.608840 0.101900 0.509052 16.377300 -0.000001 -0.000001 2.803210 -3.186890 1.225930 6.456720 -0.000001 -0.000000 0.441703 -2.907230 0.314417 12.994200 -0.242716 4.980390 -89.915400 -0.277924 -73.073300 5.348090 -0.000007 -0.000001 -66.979000 41.139600 -15.046100 24.328600 0.000019 0.000005 0.646743 1.554330 -22.593600 22.291600 -0.000001 0.000005 3.246190 5.457900 -4.923920 12.994500 -0.242716 -4.980390 87.479400 7.815460 -72.062000 -5.348130 -0.000001 -0.000004 -64.508500 37.113900 -15.109600 -24.328900 0.000322 -0.000009 3.353320 8.013060 -22.806900 -22.291500 -0.000108 -0.000004 8.123570 5.335380 -0.940225 -2.192480 -6.469440 -0.000000 -175.039000 -5.762760 -3.286350 39.081100 -0.000007 -0.000012 -0.112798 0.266670 22.927800 40.985400 -0.000006 -0.000013 -0.803050 3.421030 -65.748100 11.754300 -0.000000 0.000003 -0.000033 -0.000395 -16.593000 -2.192510 6.469440 -0.000001 -179.869000 13.958000 179.094000 -39.081100 -0.002282 -0.040193 -0.060612 0.178471 19.709200 -40.985400 0.000008 0.000006 2.921830 7.706660 -65.183700 -11.754300 -0.000006 -0.000006 -0.007518 -0.084047 -19.995100
0.000000 0.000000 0.000000 0.000000 0.000000 -0.000000 -1.535460 92.349800 -1.476420 88.041900 -0.332969 4.030410 15.735700 0.000005 -0.000001 90.759900 84.825500 -90.525300 8.984550 -0.406207 -0.000000 2.581870 0.126521 0.465915 16.377300 -0.000001 -0.000001 2.787640 -3.163330 1.123490 6.456720 -0.000001 -0.000000 0.384084 -2.895300 0.209789 12.994200 -0.242716 4.980390 -89.915700 -0.275661 -72.985100 5.348090 -0.000007 -0.000001 -66.938600 41.112900 -15.074400 24.328600 0.000019 0.000005 0.647832 1.551410 -22.666200 22.291600 -0.000001 0.000005 3.317240 5.457940 -4.925910 12.994500 -0.242716 -4.980390 87.422900 7.934840 -71.942000 -5.348130 -0.000001 -0.000004 -64.024600 35.823100 -14.851200 -24.328900 0.000322 -0.000009 3.482930 6.966140 -26.659400 -22.291500 -0.000108 -0.000004 6.691860 5.327630 -0.717630 -2.192480 -6.469440 -0.000000 -174.999000 -5.813630 -3.305050 39.081100 -0.000007 -0.000012 -0.115105 0.273237 22.844100 40.985400 -0.000006 -0.000013 -0.821037 3.426010 -65.692200 11.754300 -0.000000 0.000003 -0.000040 -0.000464 -16.595600 -2.192510 6.469440 -0.000001 -179.804000 13.910400 179.072000 -39.081100 -0.002282 -0.040193 -0.056476 0.167856 19.608200 -40.985400 0.000008 0.000006 3.035950 7.713610 -65.135300 -11.754300 -0.000006 -0.000006 -0.007515 -0.084030 -19.994400
0.000000 0.000000 0.000000 0.000000 0.000000 -0.000000 -1.537310 92.354500 -1.505580 88.040600 -0.406530 3.945100 15.735700 0.000005 -0.000001 90.664800 84.865300 -90.450200 8.984550 -0.406207 -0.000000 2.502570 0.109193 0.426411 16.377300 -0.000001 -0.000001 2.799620 -3.102560 0.992868 6.456720 -0.000001 -0.000000 0.303353 -2.828330 -0.032065 12.994200 -0.242716 4.980390 -89.924400 -0.245624 -72.895800 5.348090 -0.000007 -0.000001 -66.995600 40.975000 -14.990700 24.328600 0.000019 0.000005 0.661532 1.586540 -22.636600 22.291600 -0.000001 0.000005 3.272800 5.460560 -5.021220 12.994500 -0.242716 -4.980390 87.371900 7.978590 -71.701200 -5.348130 -0.000001 -0.000004 -63.023300 34.431300 -15.064100 -24.328900 0.000322 -0.000009 3.708990 6.066020 -31.532100 -22.291500 -0.000108 -0.000004 6.085220 5.340720 -1.101050 -2.192480 -6.469440 -0.000000 -175.011000 -5.868120 -3.388200 39.081100 -0.000007 -0.000012 -0.112978 0.268440 22.824700 40.985400 -0.000006 -0.000013 -0.823237 3.393780 -65.669700 11.754300 -0.000000 0.000003 -0.000032 -0.000383 -16.592500 -2.192510 6.469440 -0.000001 -179.780000 13.869100 178.965000 -39.081100 -0.002282 -0.040193 -0.058261 0.173130 19.580800 -40.985400 0.000008 0.000006 2.960900 7.746390 -65.076600 -11.754300 -0.000006 -0.000006 -0.007515 -0.084028 -19.994300
